<?xml version="1.0" encoding="iso-8859-1"?>
<!-- Generator: Adobe Illustrator 18.0.0, SVG Export Plug-In . SVG Version: 6.00 Build 0)  -->
<!DOCTYPE svg PUBLIC "-//W3C//DTD SVG 1.1//EN" "http://www.w3.org/Graphics/SVG/1.1/DTD/svg11.dtd">
<svg version="1.1" id="Capa_1" xmlns="http://www.w3.org/2000/svg" xmlns:xlink="http://www.w3.org/1999/xlink" x="0px" y="0px"
	 viewBox="0 0 297 297" style="enable-background:new 0 0 297 297;" xml:space="preserve">
<path d="M286.932,103.824h-7.236V53.328c0-5.56-4.508-10.068-10.068-10.068H10.068C4.508,43.26,0,47.768,0,53.328v190.344
	c0,5.56,4.508,10.068,10.068,10.068h259.56c5.56,0,10.068-4.508,10.068-10.068v-50.496h7.236c5.56,0,10.068-4.508,10.068-10.068
	v-69.216C297,108.332,292.492,103.824,286.932,103.824z M276.864,173.04h-49.081V123.96h49.081V173.04z M183.108,173.04
	c-13.532,0-24.54-11.009-24.54-24.54s11.009-24.54,24.54-24.54h24.54v49.081H183.108z M259.56,233.604H20.136V63.396H259.56v40.428
	h-76.452c-24.635,0-44.676,20.041-44.676,44.676s20.041,44.676,44.676,44.676h76.452V233.604z"/>
<g>
</g>
<g>
</g>
<g>
</g>
<g>
</g>
<g>
</g>
<g>
</g>
<g>
</g>
<g>
</g>
<g>
</g>
<g>
</g>
<g>
</g>
<g>
</g>
<g>
</g>
<g>
</g>
<g>
</g>
</svg>
